<svg width="24" height="24" viewBox="0 0 24 24" fill="none" xmlns="http://www.w3.org/2000/svg">
<path d="M20.5613 3.82027C20.4303 3.76082 20.2851 3.74026 20.1428 3.76104C20.0005 3.78181 19.8672 3.84305 19.7587 3.93746C17.1337 6.20808 14.91 5.10746 12.3328 3.83152C9.66281 2.50871 6.63562 1.01152 3.25875 3.93746C3.17806 4.00739 3.11324 4.09375 3.06862 4.19076C3.024 4.28776 3.0006 4.39318 3 4.49996V20.25C3 20.4489 3.07902 20.6396 3.21967 20.7803C3.36032 20.9209 3.55109 21 3.75 21C3.94891 21 4.13968 20.9209 4.28033 20.7803C4.42098 20.6396 4.5 20.4489 4.5 20.25V16.1034C7.01156 14.1196 9.17531 15.1893 11.6672 16.4231C14.3381 17.744 17.3644 19.2412 20.7413 16.3171C20.8219 16.2472 20.8868 16.1608 20.9314 16.0638C20.976 15.9668 20.9994 15.8614 21 15.7546V4.49996C20.9995 4.35657 20.9579 4.21635 20.8801 4.09588C20.8024 3.97542 20.6917 3.87977 20.5613 3.82027ZM19.5 5.96246V10.1484C18.1875 11.1853 16.9688 11.3878 15.75 11.1684V6.68808C17.0464 6.89059 18.3728 6.63394 19.5 5.96246ZM14.25 6.31496V10.7212C13.6256 10.4709 12.9909 10.1587 12.3328 9.83152C11.5059 9.42277 10.6453 8.99714 9.75 8.69058V4.28433C10.3744 4.53371 11.0091 4.84683 11.6672 5.17308C12.4941 5.58277 13.3556 6.00839 14.25 6.31496ZM8.25 3.83527V8.31464C6.95353 8.11249 5.62716 8.36947 4.5 9.04121V4.85433C5.8125 3.81745 7.03125 3.61589 8.25 3.83527ZM7.36688 13.5C6.35769 13.5017 5.36753 13.7747 4.5 14.2903V10.8543C5.8125 9.81745 7.03125 9.61495 8.25 9.83433V13.5656C7.95758 13.5225 7.66244 13.5006 7.36688 13.5ZM9.75 13.9378V10.2815C10.3744 10.5309 11.0091 10.844 11.6672 11.1703C12.4941 11.58 13.3547 12.0046 14.25 12.3112V15.9675C13.6256 15.7171 12.9909 15.405 12.3328 15.0787C11.5059 14.669 10.6444 14.2443 9.75 13.9378ZM15.75 16.4175V12.6862C16.0424 12.7299 16.3375 12.7525 16.6331 12.7537C17.6426 12.7506 18.6327 12.4763 19.5 11.9596V15.3984C18.1875 16.4353 16.9688 16.6368 15.75 16.4175Z" fill="#00B37E"/>
</svg>
