<svg width="52" height="52" viewBox="0 0 52 52" fill="none" xmlns="http://www.w3.org/2000/svg">
<g clip-path="url(#clip0_54_79)">
<path d="M18.9312 24.9438C18.2268 23.2156 17.868 21.3662 17.875 19.5C17.875 16.6075 18.7327 13.7799 20.3398 11.3748C21.9468 8.96972 24.2309 7.0952 26.9033 5.98827C29.5756 4.88134 32.5162 4.59171 35.3532 5.15602C38.1902 5.72033 40.7961 7.11323 42.8414 9.15857C44.8868 11.2039 46.2797 13.8098 46.844 16.6468C47.4083 19.4838 47.1187 22.4244 46.0117 25.0968C44.9048 27.7691 43.0303 30.0532 40.6252 31.6602C38.2201 33.2673 35.3925 34.125 32.5 34.125C30.6338 34.132 28.7844 33.7732 27.0562 33.0688L24.375 35.75H19.5V40.625H14.625V45.5H6.5V37.375L18.9312 24.9438Z" stroke="#00B37E" stroke-width="2" stroke-linecap="round" stroke-linejoin="round"/>
<path d="M36.5625 17.875C37.9087 17.875 39 16.7837 39 15.4375C39 14.0913 37.9087 13 36.5625 13C35.2163 13 34.125 14.0913 34.125 15.4375C34.125 16.7837 35.2163 17.875 36.5625 17.875Z" fill="#00B37E"/>
</g>
<defs>
<clipPath id="clip0_54_79">
<rect width="52" height="52" fill="white"/>
</clipPath>
</defs>
</svg>
