<svg width="18" height="18" viewBox="0 0 18 18" fill="none" xmlns="http://www.w3.org/2000/svg">
<g clip-path="url(#clip0_54_604)">
<path d="M3.375 2.8125L14.625 15.1875" stroke="#E1E1E6" stroke-linecap="round" stroke-linejoin="round"/>
<path d="M7.53047 4.04294C8.0171 3.9721 8.50825 3.93685 9 3.93748C11.7093 3.93018 14.3111 4.99718 16.2352 6.90466" stroke="#E1E1E6" stroke-linecap="round" stroke-linejoin="round"/>
<path d="M1.76485 6.9047C2.71857 5.96033 3.84857 5.21257 5.09063 4.70392" stroke="#E1E1E6" stroke-linecap="round" stroke-linejoin="round"/>
<path d="M10.6945 7.52344C11.8859 7.81851 12.9762 8.428 13.8516 9.28828" stroke="#E1E1E6" stroke-linecap="round" stroke-linejoin="round"/>
<path d="M4.14844 9.28828C5.09763 8.35952 6.29338 7.7226 7.59375 7.45312" stroke="#E1E1E6" stroke-linecap="round" stroke-linejoin="round"/>
<path d="M6.53203 11.6789C7.16612 11.0735 8.00036 10.7219 8.8765 10.6908C9.75265 10.6597 10.6097 10.9513 11.2852 11.5102" stroke="#E1E1E6" stroke-linecap="round" stroke-linejoin="round"/>
<path d="M9 14.9062C9.46599 14.9062 9.84375 14.5285 9.84375 14.0625C9.84375 13.5965 9.46599 13.2188 9 13.2188C8.53401 13.2188 8.15625 13.5965 8.15625 14.0625C8.15625 14.5285 8.53401 14.9062 9 14.9062Z" fill="#E1E1E6"/>
</g>
<defs>
<clipPath id="clip0_54_604">
<rect width="18" height="18" fill="white"/>
</clipPath>
</defs>
</svg>
